/vscmnt/brussel_pixiu_data/_data_brussel/112/vsc11236/PredSimResults/SUBJ04opt3D/weighted-trackIG/worker_02.mot
version=1
nRows=11
nColumns=50
inDegrees=yes
endheader
                time	         pelvis_tilt	         pelvis_list	     pelvis_rotation	           pelvis_tx	           pelvis_ty	           pelvis_tz	       hip_flexion_r	     hip_adduction_r	      hip_rotation_r	        knee_angle_r	       ankle_angle_r	         mtp_angle_r	       hip_flexion_l	     hip_adduction_l	      hip_rotation_l	        knee_angle_l	       ankle_angle_l	         mtp_angle_l	    lumbar_extension	      lumbar_bending	     lumbar_rotation	 ercspn_r/activation	 intobl_r/activation	 extobl_r/activation	    abd_r/activation	    add_r/activation	hamstrings_r/activation	bifemsh_r/activation	glut_max_r/activation	iliopsoas_r/activation	rect_fem_r/activation	  vasti_r/activation	gastroc_r/activation	 soleus_r/activation	tib_ant_r/activation	 ercspn_l/activation	 intobl_l/activation	 extobl_l/activation	    abd_l/activation	    add_l/activation	hamstrings_l/activation	bifemsh_l/activation	glut_max_l/activation	iliopsoas_l/activation	rect_fem_l/activation	  vasti_l/activation	gastroc_l/activation	 soleus_l/activation	tib_ant_l/activation	
          1.35348829	         -1.56204756	          0.32283658	          8.54968644	          1.17753481	          0.88464623	         -0.01094009	         28.28854797	         -3.04209416	         -9.84125160	        -10.58395152	          3.99715200	          0.22983701	        -11.98901772	         -0.27638389	         -7.22872093	         -6.95561521	         13.85438537	         18.02913137	        -14.08629806	         -4.22561950	         -7.77357979	          0.04507995	          0.23418419	          0.02241255	          0.01209963	          0.24182939	          0.06657202	          0.02765096	          0.01639165	          0.18759924	          0.04147951	          0.04756638	          0.00999999	          0.00999999	          0.33523252	          0.00999999	          0.00999999	          0.00999999	          0.07645768	          0.00999999	          0.02893533	          0.26228150	          0.01840883	          0.01840883	          0.00999999	          0.00999999	          0.25533784	          0.24220191	          0.01225580	
          1.36702317	         -1.67464439	          0.32441062	          8.34481296	          1.19249998	          0.88228715	         -0.01057132	         28.28133529	         -2.89448915	        -10.03012958	        -11.88660126	          3.81917451	          0.22965072	        -12.67298452	         -0.37138870	         -7.87028348	         -7.39956884	         13.71079143	         19.38723042	        -13.59284957	         -3.62445585	         -7.85731919	          0.03678250	          0.23057034	          0.01828728	          0.00999999	          0.30324681	          0.06751039	          0.02256150	          0.01337459	          0.15306959	          0.03384476	          0.03881127	          0.01502048	          0.01840882	          0.32729983	          0.02761911	          0.00999999	          0.00999999	          0.06238483	          0.00999999	          0.02360948	          0.21400579	          0.01502049	          0.01502048	          0.00999999	          0.00999999	          0.24897990	          0.24848248	          0.00999999	
          1.38055806	         -1.77124026	          0.26786865	          8.09810241	          1.20791860	          0.88003963	         -0.01015693	         28.16617240	         -2.73523512	        -10.07520418	        -13.25391413	          3.59935298	          0.22182940	        -13.33192885	         -0.53036192	         -8.54888234	         -7.96450105	         13.48513446	         20.81242727	        -13.05565501	         -2.93219058	         -7.91732111	          0.03001229	          0.22523537	          0.01492131	          0.01805885	          0.24743099	          0.07106420	          0.01840882	          0.02411772	          0.12489549	          0.02761527	          0.03808863	          0.01225580	          0.01502048	          0.35001909	          0.02630493	          0.00999999	          0.00999999	          0.05090223	          0.00999999	          0.03244428	          0.17461573	          0.01225581	          0.01225580	          0.00999999	          0.00999999	          0.22170956	          0.24611753	          0.00999999	
          1.39409294	         -1.85311262	          0.15177391	          7.80003270	          1.22359695	          0.87807475	         -0.00964199	         27.99981461	         -2.53258756	        -10.20155132	        -14.51284502	          3.20304871	          0.20974928	        -13.90355874	         -0.76076713	         -9.27526566	         -8.73768100	         13.15942810	         22.28904589	        -12.50192638	         -2.15319466	         -7.94486569	          0.02448820	          0.18377838	          0.01217488	          0.02675772	          0.22202458	          0.07630617	          0.01502048	          0.01967860	          0.10190714	          0.02253238	          0.10426856	          0.00999999	          0.01225580	          0.37684916	          0.02985456	          0.00999999	          0.00999999	          0.04153313	          0.00999999	          0.02765887	          0.14247583	          0.00999999	          0.00999999	          0.00999999	          0.00999999	          0.18090154	          0.23551124	          0.00999999	
          1.40762782	         -1.92058162	         -0.01305542	          7.45621997	          1.23942277	          0.87656805	         -0.00900906	         27.76704836	         -2.29232083	        -10.46082519	        -15.67358402	          2.84361552	          0.18880245	        -14.33549697	         -1.06309745	        -10.04056009	         -9.79564078	         12.68938226	         23.81686966	        -11.95040069	         -1.30646671	         -7.93842344	          0.02295802	          0.14995200	          0.00999999	          0.04602477	          0.19348933	          0.07676455	          0.01225580	          0.01605654	          0.08315004	          0.01838506	          0.17313819	          0.00999999	          0.00999999	          0.39393340	          0.04060152	          0.00999999	          0.00999999	          0.03388851	          0.00999999	          0.02571126	          0.11625163	          0.00999999	          0.00999999	          0.00999999	          0.00999999	          0.14760468	          0.21815146	          0.00999999	
          1.42116270	         -1.97425974	         -0.22013569	          7.07805990	          1.25528909	          0.87570567	         -0.00824715	         27.42189905	         -2.00827793	        -10.82126971	        -16.68917720	          2.68490064	          0.16620234	        -14.56990966	         -1.44660821	        -10.83572976	        -11.21911818	         12.01741153	         25.40803884	        -11.41574037	         -0.40792612	         -7.89815181	          0.02816408	          0.12235173	          0.00999999	          0.07474084	          0.16939482	          0.07573946	          0.00999999	          0.02197526	          0.06784538	          0.01500109	          0.21510889	          0.00999999	          0.00999999	          0.39585143	          0.06649833	          0.00999999	          0.00999999	          0.02765097	          0.00999999	          0.04472938	          0.09485427	          0.01374692	          0.00999999	          0.00999999	          0.00999999	          0.12043646	          0.17907817	          0.00999999	
          1.43469759	         -2.01504198	         -0.46210734	          6.67952644	          1.27104887	          0.87563510	         -0.00735378	         26.95875689	         -1.67081099	        -11.20102886	        -17.54173382	          2.74730673	          0.14988515	        -14.53973059	         -1.92341257	        -11.66024566	        -13.10321031	         11.10880104	         27.04370301	        -10.91418443	          0.52691405	         -7.82870054	          0.03197726	          0.09983158	          0.00999999	          0.09399020	          0.15372706	          0.07689142	          0.01000000	          0.02293488	          0.05535771	          0.01223998	          0.23073175	          0.00999999	          0.00999999	          0.38193513	          0.08632941	          0.00999999	          0.00999999	          0.02256151	          0.00999999	          0.05728282	          0.07739533	          0.02252247	          0.00999999	          0.00999999	          0.00999999	          0.09826884	          0.14611691	          0.00999999	
          1.44823247	         -2.04312826	         -0.72102307	          6.27332077	          1.28659545	          0.87637149	         -0.00633565	         26.38462147	         -1.28308457	        -11.51828034	        -18.22850615	          3.00890351	          0.15620027	        -14.20333499	         -2.49368251	        -12.51424113	        -15.50138489	          9.92541647	         28.69884881	        -10.45701383	          1.47237119	         -7.73549094	          0.03133385	          0.08145651	          0.00999999	          0.10581237	          0.15380153	          0.07889657	          0.00999999	          0.02460424	          0.04516853	          0.00999999	          0.24196810	          0.00999999	          0.00999999	          0.34875370	          0.08840902	          0.00999999	          0.00999999	          0.01840882	          0.07355408	          0.09091773	          0.06314989	          0.02100746	          0.00999999	          0.00999999	          0.01204204	          0.08018140	          0.11922253	          0.00999999	
          1.46176735	         -2.05890853	         -0.97035523	          5.87004478	          1.30184826	          0.87785078	         -0.00521333	         25.69020568	         -0.85883443	        -11.70990501	        -18.71026215	          3.39267580	          0.22558438	        -13.53850575	         -3.14742968	        -13.38006528	        -18.43308495	          8.44194043	         30.29068923	        -10.05342011	          2.39630869	         -7.62197593	          0.03001054	          0.06646357	          0.00999999	          0.11068660	          0.16144197	          0.08438135	          0.00999999	          0.02353607	          0.03685478	          0.00999999	          0.23877364	          0.00999999	          0.00999999	          0.31648330	          0.07398462	          0.00999999	          0.00999999	          0.01502048	          0.14763891	          0.10593669	          0.05152647	          0.01714081	          0.00999999	          0.00999999	          0.00999999	          0.06542316	          0.09727834	          0.00999999	
          1.47530224	         -2.06263327	         -1.17454201	          5.47327481	          1.31674222	          0.87994181	         -0.00401756	         24.87116926	         -0.43836836	        -11.78127477	        -18.95447357	          3.76338360	          0.36528701	        -12.53760496	         -3.86249160	        -14.24698629	        -21.89254139	          6.65711699	         31.65740669	         -9.71225782	          3.25895111	         -7.48446910	          0.02463781	          0.05423024	          0.00999999	          0.11272424	          0.16118551	          0.08883455	          0.00999999	          0.01960284	          0.03007126	          0.00999999	          0.22715372	          0.00999999	          0.00999999	          0.28649316	          0.06649974	          0.01502048	          0.00999999	          0.01225580	          0.15873381	          0.10636572	          0.04204248	          0.01398586	          0.00999999	          0.00999999	          0.00999999	          0.05338132	          0.07937322	          0.00999999	
          1.48883712	         -2.05360064	         -1.30152208	          5.08482161	          1.33123729	          0.88247386	         -0.00276944	         23.94526339	         -0.06869216	        -11.76620775	        -18.99443723	          4.11145424	          0.59379978	        -11.21475493	         -4.62050722	        -15.12034495	        -25.84956849	          4.68667763	         32.41290449	         -9.43916260	          4.02231387	         -7.31776498	          0.02010296	          0.04424858	          0.00999999	          0.11055979	          0.14542392	          0.09306524	          0.00999999	          0.03220455	          0.02453632	          0.00999999	          0.21570516	          0.00999999	          0.00999999	          0.25862843	          0.06001836	          0.01225580	          0.00999999	          0.00999999	          0.19519643	          0.08678797	          0.03552863	          0.01141161	          0.00999999	          0.00999999	          0.00999999	          0.04355592	          0.06476373	          0.01831795	
